<svg width="255" height="64" viewBox="0 0 255 64" fill="none" xmlns="http://www.w3.org/2000/svg">
<path d="M234.239 53.44H253.279C254.159 53.44 254.559 53.92 254.559 54.72V62.72C254.559 63.6 254.159 64 253.279 64H224.639C223.839 64 223.359 63.6 223.359 62.72V1.28C223.359 0.479999 223.839 0 224.639 0H232.959C233.839 0 234.239 0.479999 234.239 1.28V53.44Z" fill="#181D27"/>
<path d="M215.046 64H206.566C205.846 64 205.446 63.6 205.286 62.88L203.046 51.2H188.806L186.646 62.88C186.486 63.6 186.086 64 185.366 64H176.806C175.926 64 175.526 63.52 175.766 62.64L189.046 1.12C189.206 0.319996 189.686 0 190.406 0H201.526C202.246 0 202.726 0.319996 202.886 1.12L216.166 62.64C216.326 63.52 216.006 64 215.046 64ZM201.046 41.92L195.926 14L190.806 41.92H201.046Z" fill="#181D27"/>
<path d="M167.834 64H159.354C158.394 64 157.834 63.6 157.514 62.8L147.434 39.04L144.474 44.72V62.4C144.474 63.44 143.914 64 142.874 64H135.194C134.154 64 133.594 63.44 133.594 62.4V1.6C133.594 0.559998 134.154 0 135.194 0H142.874C143.914 0 144.474 0.559998 144.474 1.6V26.4L156.794 1.2C157.194 0.4 157.754 0 158.634 0H167.034C168.234 0 168.714 0.799999 168.154 1.92L154.554 29.84L169.034 62.16C169.594 63.2 169.114 64 167.834 64Z" fill="#181D27"/>
<path d="M105.114 0H114.074C121.594 0 125.594 4 125.594 11.52V20C125.594 20.8 125.194 21.28 124.314 21.28H115.994C115.194 21.28 114.714 20.8 114.714 20V13.76C114.714 11.68 113.674 10.56 111.514 10.56H107.674C105.674 10.56 104.474 11.68 104.474 13.76V24.8L123.514 31.04C124.874 31.6 125.594 32.48 125.594 34V52.48C125.594 60 121.594 64 114.074 64H105.114C97.6737 64 93.5938 60 93.5938 52.48V44.08C93.5938 43.2 94.0737 42.8 94.8737 42.8H103.194C104.074 42.8 104.474 43.2 104.474 44.08V50.24C104.474 52.4 105.674 53.44 107.674 53.44H111.514C113.594 53.44 114.714 52.4 114.714 50.24V39.6L95.7537 33.36C94.3137 32.88 93.5938 31.92 93.5938 30.4V11.52C93.5938 4 97.6737 0 105.114 0Z" fill="#181D27"/>
<path d="M53.5938 52.48V11.52C53.5938 4 57.5938 0 65.1138 0H74.0738C81.5938 0 85.5938 4 85.5938 11.52V52.48C85.5938 60 81.5938 64 74.0738 64H65.1138C57.5938 64 53.5938 60 53.5938 52.48ZM67.4338 53.68H72.0738C74.1538 53.68 75.2738 52.64 75.2738 50.48V13.52C75.2738 11.44 74.1538 10.32 72.0738 10.32H67.4338C65.3538 10.32 64.2338 11.44 64.2338 13.52V50.48C64.2338 52.64 65.3538 53.68 67.4338 53.68Z" fill="#181D27"/>
<path d="M33.44 0H44C45.04 0 45.6 0.559998 45.6 1.6V62.4C45.6 63.44 45.04 64 44 64H36.56C35.52 64 34.96 63.44 34.96 62.4V26.4H34.4L26.48 62.56C26.24 63.52 25.68 64 24.72 64H20.8C19.84 64 19.28 63.52 19.04 62.56L11.12 26.4H10.56V62.4C10.56 63.44 10 64 8.96001 64H1.6C0.560001 64 0 63.44 0 62.4V1.6C0 0.559998 0.560001 0 1.6 0H12.16C13.12 0 13.68 0.479999 13.92 1.44L22.8 41.28L31.68 1.44C31.92 0.479999 32.48 0 33.44 0Z" fill="#181D27"/>
</svg>
